<svg width="83" height="50" viewBox="0 0 83 50" fill="none" xmlns="http://www.w3.org/2000/svg">
<g clip-path="url(#clip0_612_2427)">
<path d="M44.9 15.1125C46.3 14.5313 49.82 13.6013 52.7 14.5313" stroke="white" stroke-width="1.8" stroke-linecap="round" stroke-linejoin="round"/>
<path d="M44.7 18.8008C46.1 18.2195 49.62 17.2895 52.5 18.2195" stroke="white" stroke-width="1.8" stroke-linecap="round" stroke-linejoin="round"/>
<path d="M41.5 7.3625C35.9 3.3325 29.4333 5.68333 26.9 7.3625V24.8C32.98 20.925 39.1667 23.4437 41.5 25.1875M41.5 7.3625C43.6333 5.8125 49.54 3.60375 56.1 7.16875V25.1875C53.7667 23.3792 47.58 20.8475 41.5 25.1875M41.5 7.3625V25.1875M44.9 11.4312C46.5 10.85 50.3 9.95875 52.7 11.0437" stroke="white" stroke-width="2" stroke-linecap="round" stroke-linejoin="round"/>
</g>
<text fill="white" xml:space="preserve" style="white-space: pre" font-family="Lilita One"   font-size="12" letter-spacing="0.024em"><tspan x="22.1907" y="47.218">Library</tspan></text>
<defs>
<clipPath id="clip0_612_2427">
<rect width="32" height="31" fill="white" transform="translate(25.5)"/>
</clipPath>
</defs>
</svg>