<svg width="82" height="54" viewBox="0 0 82 54" fill="none" xmlns="http://www.w3.org/2000/svg">
<path d="M48.9943 28.9655H32.5805C31.4759 28.9655 30.5805 28.0701 30.5805 26.9655V25.2332C30.5805 24.6882 30.8034 24.16 31.2107 23.7978C39.3473 16.5614 47.0834 20.4751 50.4726 23.8306C50.8208 24.1753 50.9943 24.6507 50.9943 25.1406V26.9655C50.9943 28.0701 50.0988 28.9655 48.9943 28.9655Z" stroke="white" stroke-width="2.2" stroke-linejoin="round"/>
<path d="M44.7908 12.069C44.7908 14.0709 43.0568 15.7965 40.7874 15.7965C38.5179 15.7965 36.7839 14.0709 36.7839 12.069C36.7839 10.0671 38.5179 8.34138 40.7874 8.34138C43.0568 8.34138 44.7908 10.0671 44.7908 12.069Z" stroke="white" stroke-width="2.2"/>
<path d="M20.4618 51.012C19.7498 51.012 19.3938 50.932 19.3938 50.772L19.1418 45.96L17.6778 50.832C17.6458 50.928 17.3738 50.976 16.8618 50.976C16.3498 50.976 16.0858 50.932 16.0698 50.844L14.5578 45.912L14.3898 50.7C14.3818 50.82 14.2298 50.904 13.9338 50.952C13.6378 50.992 13.3898 51.012 13.1898 51.012C12.9978 51.012 12.8098 51 12.6258 50.976C12.2418 50.92 12.0538 50.82 12.0618 50.676L12.3378 42.876C12.3378 42.684 12.8258 42.588 13.8018 42.588C14.0898 42.588 14.4418 42.612 14.8578 42.66C15.2738 42.7 15.5058 42.784 15.5538 42.912L16.8978 46.692L18.0738 42.9C18.1458 42.692 18.6978 42.588 19.7298 42.588C20.0258 42.588 20.3778 42.612 20.7858 42.66C21.2018 42.7 21.4098 42.776 21.4098 42.888L21.7578 50.76C21.7578 50.848 21.6018 50.912 21.2898 50.952C20.9778 50.992 20.7018 51.012 20.4618 51.012ZM22.7565 45.06C22.7565 44.972 23.1205 44.928 23.8485 44.928C24.5845 44.928 24.9645 44.968 24.9885 45.048L25.8525 47.88L26.6805 45.024C26.7125 44.96 26.9605 44.928 27.4245 44.928C28.4885 44.928 28.9965 44.98 28.9485 45.084L26.1285 53.112C26.1205 53.16 25.9005 53.184 25.4685 53.184C25.0445 53.184 24.6485 53.168 24.2805 53.136C23.9125 53.112 23.7365 53.08 23.7525 53.04L24.7965 50.52L22.7565 45.06ZM32.3996 50.292V42.828C32.3996 42.66 32.8036 42.576 33.6116 42.576C34.4276 42.576 34.8356 42.66 34.8356 42.828V48.708H36.6836C36.8276 48.708 36.9276 48.896 36.9836 49.272C37.0076 49.456 37.0196 49.644 37.0196 49.836C37.0196 50.028 37.0076 50.224 36.9836 50.424C36.9196 50.808 36.8156 51 36.6716 51H32.9756C32.7996 51 32.6596 50.928 32.5556 50.784C32.4516 50.64 32.3996 50.476 32.3996 50.292ZM40.1584 50.928C40.1584 50.992 39.7904 51.024 39.0544 51.024C38.3264 51.024 37.9624 50.996 37.9624 50.94V45.048C37.9624 44.992 38.3264 44.964 39.0544 44.964C39.7904 44.964 40.1584 44.988 40.1584 45.036V50.928ZM40.1584 44.328C40.1584 44.384 39.7904 44.412 39.0544 44.412C38.3264 44.412 37.9624 44.388 37.9624 44.34V42.612C37.9624 42.532 38.3264 42.492 39.0544 42.492C39.7904 42.492 40.1584 42.516 40.1584 42.564V44.328ZM41.5917 42.636C41.5917 42.54 41.9357 42.492 42.6237 42.492C43.3197 42.492 43.6677 42.544 43.6677 42.648V44.976C44.0117 44.912 44.2557 44.88 44.3997 44.88C46.0797 44.88 46.9197 45.844 46.9197 47.772C46.9197 48.844 46.6597 49.672 46.1397 50.256C45.6277 50.832 44.8957 51.12 43.9437 51.12C42.9997 51.12 42.2157 50.908 41.5917 50.484V42.636ZM44.0637 46.752C43.9277 46.752 43.7957 46.796 43.6677 46.884V49.176C43.7797 49.224 43.8957 49.248 44.0157 49.248C44.1437 49.248 44.2717 49.2 44.3997 49.104C44.6237 48.944 44.7357 48.572 44.7357 47.988C44.7357 47.164 44.5117 46.752 44.0637 46.752ZM50.682 50.988C50.682 51.044 50.318 51.072 49.59 51.072C48.862 51.056 48.498 51.024 48.498 50.976V46.992H48.174C48.046 46.992 47.942 46.916 47.862 46.764C47.79 46.604 47.754 46.408 47.754 46.176C47.754 45.312 48.01 44.88 48.522 44.88C48.882 44.88 49.182 44.992 49.422 45.216C49.662 45.432 49.782 45.68 49.782 45.96C49.95 45.632 50.174 45.372 50.454 45.18C50.742 44.98 51.034 44.88 51.33 44.88C51.794 44.88 52.074 45 52.17 45.24C52.194 45.304 52.206 45.4 52.206 45.528C52.206 45.648 52.166 45.868 52.086 46.188C52.014 46.508 51.938 46.74 51.858 46.884C51.778 47.028 51.73 47.1 51.714 47.1C51.698 47.1 51.622 47.072 51.486 47.016C51.358 46.952 51.242 46.92 51.138 46.92C50.834 46.92 50.682 47.16 50.682 47.64V50.988ZM53.8558 46.644C53.6318 46.244 53.5198 45.92 53.5198 45.672C53.5198 45.416 53.5878 45.252 53.7238 45.18C54.1798 44.98 54.8038 44.88 55.5958 44.88C56.3958 44.88 56.9598 45.068 57.2878 45.444C57.6158 45.812 57.7798 46.36 57.7798 47.088V48.984H58.1878C58.3238 48.984 58.4278 49.064 58.4998 49.224C58.5798 49.384 58.6198 49.604 58.6198 49.884C58.6198 50.164 58.5478 50.44 58.4038 50.712C58.2678 50.984 58.0798 51.12 57.8398 51.12C57.4078 51.12 57.0598 51.004 56.7958 50.772C56.6758 50.676 56.5838 50.56 56.5198 50.424C56.1518 50.888 55.5798 51.12 54.8038 51.12C54.2198 51.12 53.7278 50.912 53.3278 50.496C52.9278 50.08 52.7278 49.588 52.7278 49.02C52.7278 47.716 53.5078 47.064 55.0678 47.064H55.7278V46.944C55.7278 46.736 55.6918 46.604 55.6198 46.548C55.5558 46.484 55.3998 46.452 55.1518 46.452C54.8478 46.452 54.4158 46.516 53.8558 46.644ZM54.8158 48.852C54.8158 49.028 54.8638 49.164 54.9598 49.26C55.0558 49.348 55.1758 49.392 55.3198 49.392C55.4718 49.392 55.6078 49.332 55.7278 49.212V48.288H55.3918C55.0078 48.288 54.8158 48.476 54.8158 48.852ZM62.2151 50.988C62.2151 51.044 61.8511 51.072 61.1231 51.072C60.3951 51.056 60.0311 51.024 60.0311 50.976V46.992H59.7071C59.5791 46.992 59.4751 46.916 59.3951 46.764C59.3231 46.604 59.2871 46.408 59.2871 46.176C59.2871 45.312 59.5431 44.88 60.0551 44.88C60.4151 44.88 60.7151 44.992 60.9551 45.216C61.1951 45.432 61.3151 45.68 61.3151 45.96C61.4831 45.632 61.7071 45.372 61.9871 45.18C62.2751 44.98 62.5671 44.88 62.8631 44.88C63.3271 44.88 63.6071 45 63.7031 45.24C63.7271 45.304 63.7391 45.4 63.7391 45.528C63.7391 45.648 63.6991 45.868 63.6191 46.188C63.5471 46.508 63.4711 46.74 63.3911 46.884C63.3111 47.028 63.2631 47.1 63.2471 47.1C63.2311 47.1 63.1551 47.072 63.0191 47.016C62.8911 46.952 62.7751 46.92 62.6711 46.92C62.3671 46.92 62.2151 47.16 62.2151 47.64V50.988ZM64.2129 45.06C64.2129 44.972 64.5769 44.928 65.3049 44.928C66.0409 44.928 66.4209 44.968 66.4449 45.048L67.3089 47.88L68.1369 45.024C68.1689 44.96 68.4169 44.928 68.8809 44.928C69.9449 44.928 70.4529 44.98 70.4049 45.084L67.5849 53.112C67.5769 53.16 67.3569 53.184 66.9249 53.184C66.5009 53.184 66.1049 53.168 65.7369 53.136C65.3689 53.112 65.1929 53.08 65.2089 53.04L66.2529 50.52L64.2129 45.06Z" fill="white"/>
</svg>
