<svg width="39" height="236" viewBox="0 0 39 236" fill="none" xmlns="http://www.w3.org/2000/svg">
<path d="M0 10C0 4.47715 4.47715 0 10 0H29C34.5228 0 39 4.47715 39 10V102L19.5 118L0 102L0 10Z" fill="#058B97"/>
<path d="M0 108L19.5 124L39 108V226C39 231.523 34.5228 236 29 236H10C4.47715 236 0 231.523 0 226V108Z" fill="#058B97"/>
<path d="M9.15283 58.3008C9.12158 57.9857 8.98747 57.7409 8.75049 57.5664C8.51351 57.3919 8.19189 57.3047 7.78564 57.3047C7.5096 57.3047 7.27653 57.3437 7.08643 57.4219C6.89632 57.4974 6.75049 57.6029 6.64893 57.7383C6.54997 57.8737 6.50049 58.0273 6.50049 58.1992C6.49528 58.3424 6.52523 58.4674 6.59033 58.5742C6.65804 58.681 6.75049 58.7734 6.86768 58.8516C6.98486 58.9271 7.12028 58.9935 7.27393 59.0508C7.42757 59.1055 7.59163 59.1523 7.76611 59.1914L8.48486 59.3633C8.83382 59.4414 9.15413 59.5456 9.4458 59.6758C9.73747 59.806 9.99007 59.9661 10.2036 60.1562C10.4172 60.3464 10.5825 60.5703 10.6997 60.8281C10.8195 61.0859 10.8807 61.3815 10.8833 61.7148C10.8807 62.2044 10.7557 62.6289 10.5083 62.9883C10.2635 63.3451 9.90934 63.6224 9.4458 63.8203C8.98486 64.0156 8.42887 64.1133 7.77783 64.1133C7.132 64.1133 6.5695 64.0143 6.09033 63.8164C5.61377 63.6185 5.24137 63.3255 4.97314 62.9375C4.70752 62.5469 4.5682 62.0638 4.55518 61.4883H6.19189C6.21012 61.7565 6.28695 61.9805 6.42236 62.1602C6.56038 62.3372 6.74398 62.4714 6.97314 62.5625C7.20492 62.651 7.46663 62.6953 7.7583 62.6953C8.04476 62.6953 8.29346 62.6536 8.50439 62.5703C8.71794 62.487 8.8833 62.3711 9.00049 62.2227C9.11768 62.0742 9.17627 61.9036 9.17627 61.7109C9.17627 61.5312 9.12288 61.3802 9.01611 61.2578C8.91195 61.1354 8.7583 61.0312 8.55518 60.9453C8.35465 60.8594 8.10856 60.7812 7.81689 60.7109L6.9458 60.4922C6.27132 60.3281 5.73877 60.0716 5.34814 59.7227C4.95752 59.3737 4.76351 58.9036 4.76611 58.3125C4.76351 57.8281 4.89242 57.4049 5.15283 57.043C5.41585 56.681 5.77653 56.3984 6.23486 56.1953C6.6932 55.9922 7.21403 55.8906 7.79736 55.8906C8.39111 55.8906 8.90934 55.9922 9.35205 56.1953C9.79736 56.3984 10.1437 56.681 10.3911 57.043C10.6385 57.4049 10.7661 57.8242 10.7739 58.3008H9.15283ZM15.1812 58V59.25H11.5679V58H15.1812ZM12.3882 56.5625H14.0522V62.1562C14.0522 62.3099 14.0757 62.4297 14.1226 62.5156C14.1694 62.599 14.2345 62.6576 14.3179 62.6914C14.4038 62.7253 14.5028 62.7422 14.6147 62.7422C14.6929 62.7422 14.771 62.7357 14.8491 62.7227C14.9272 62.707 14.9871 62.6953 15.0288 62.6875L15.2905 63.9258C15.2072 63.9518 15.09 63.9818 14.939 64.0156C14.7879 64.0521 14.6043 64.0742 14.3882 64.082C13.9871 64.0977 13.6356 64.0443 13.3335 63.9219C13.034 63.7995 12.8009 63.6094 12.6343 63.3516C12.4676 63.0937 12.3856 62.7682 12.3882 62.375V56.5625ZM20.1128 61.4453V58H21.7769V64H20.1792V62.9102H20.1167C19.9813 63.2617 19.756 63.5443 19.4409 63.7578C19.1284 63.9714 18.7469 64.0781 18.2964 64.0781C17.8953 64.0781 17.5425 63.987 17.2378 63.8047C16.9331 63.6224 16.6948 63.3633 16.5229 63.0273C16.3537 62.6914 16.2677 62.2891 16.2651 61.8203V58H17.9292V61.5234C17.9318 61.8776 18.0269 62.1576 18.2144 62.3633C18.4019 62.569 18.6532 62.6719 18.9683 62.6719C19.1688 62.6719 19.3563 62.6263 19.5308 62.5352C19.7052 62.4414 19.8459 62.3034 19.9526 62.1211C20.062 61.9388 20.1154 61.7135 20.1128 61.4453ZM25.3188 64.0977C24.8631 64.0977 24.4504 63.9805 24.0806 63.7461C23.7134 63.5091 23.4217 63.1615 23.2056 62.7031C22.992 62.2422 22.8853 61.6771 22.8853 61.0078C22.8853 60.3203 22.9959 59.7487 23.2173 59.293C23.4386 58.8346 23.7329 58.4922 24.1001 58.2656C24.4699 58.0365 24.8748 57.9219 25.3149 57.9219C25.6509 57.9219 25.9308 57.9792 26.1548 58.0938C26.3813 58.2057 26.5636 58.3464 26.7017 58.5156C26.8423 58.6823 26.9491 58.8464 27.022 59.0078H27.0728V56H28.7329V64H27.0923V63.0391H27.022C26.9438 63.2057 26.8332 63.3711 26.6899 63.5352C26.5493 63.6966 26.3657 63.8307 26.1392 63.9375C25.9152 64.0443 25.6418 64.0977 25.3188 64.0977ZM25.8462 62.7734C26.1144 62.7734 26.341 62.7005 26.5259 62.5547C26.7134 62.4062 26.8566 62.1992 26.9556 61.9336C27.0571 61.668 27.1079 61.3568 27.1079 61C27.1079 60.6432 27.0584 60.3333 26.9595 60.0703C26.8605 59.8073 26.7173 59.6042 26.5298 59.4609C26.3423 59.3177 26.1144 59.2461 25.8462 59.2461C25.5728 59.2461 25.3423 59.3203 25.1548 59.4687C24.9673 59.6172 24.8254 59.8229 24.729 60.0859C24.6326 60.349 24.5845 60.6536 24.5845 61C24.5845 61.349 24.6326 61.6576 24.729 61.9258C24.828 62.1914 24.9699 62.3997 25.1548 62.5508C25.3423 62.6992 25.5728 62.7734 25.8462 62.7734ZM31.1284 66.25C30.9175 66.25 30.7196 66.2331 30.5347 66.1992C30.3524 66.168 30.2013 66.1276 30.0815 66.0781L30.4565 64.8359C30.6519 64.8958 30.8276 64.9284 30.9839 64.9336C31.1427 64.9388 31.2795 64.9023 31.394 64.8242C31.5112 64.7461 31.6063 64.6133 31.6792 64.4258L31.7769 64.1719L29.6245 58H31.3745L32.6167 62.4062H32.6792L33.9331 58H35.6948L33.3628 64.6484C33.2508 64.9714 33.0985 65.2526 32.9058 65.4922C32.7157 65.7344 32.4748 65.9206 32.1831 66.0508C31.8914 66.1836 31.5399 66.25 31.1284 66.25Z" fill="#03545B"/>
<path d="M10.8506 151.219H12.2881L13.0107 152.148L13.7217 152.977L15.0615 154.656H13.4834L12.5615 153.523L12.0889 152.852L10.8506 151.219ZM15.1826 150C15.1826 150.872 15.0173 151.615 14.6865 152.227C14.3584 152.839 13.9105 153.306 13.3428 153.629C12.7777 153.949 12.1423 154.109 11.4365 154.109C10.7256 154.109 10.0876 153.948 9.52246 153.625C8.95736 153.302 8.51074 152.835 8.18262 152.223C7.85449 151.611 7.69043 150.87 7.69043 150C7.69043 149.128 7.85449 148.385 8.18262 147.773C8.51074 147.161 8.95736 146.695 9.52246 146.375C10.0876 146.052 10.7256 145.891 11.4365 145.891C12.1423 145.891 12.7777 146.052 13.3428 146.375C13.9105 146.695 14.3584 147.161 14.6865 147.773C15.0173 148.385 15.1826 149.128 15.1826 150ZM13.4678 150C13.4678 149.435 13.3831 148.958 13.2139 148.57C13.0472 148.182 12.8115 147.888 12.5068 147.688C12.2021 147.487 11.8454 147.387 11.4365 147.387C11.0277 147.387 10.6709 147.487 10.3662 147.688C10.0615 147.888 9.82454 148.182 9.65527 148.57C9.48861 148.958 9.40527 149.435 9.40527 150C9.40527 150.565 9.48861 151.042 9.65527 151.43C9.82454 151.818 10.0615 152.112 10.3662 152.312C10.6709 152.513 11.0277 152.613 11.4365 152.613C11.8454 152.613 12.2021 152.513 12.5068 152.312C12.8115 152.112 13.0472 151.818 13.2139 151.43C13.3831 151.042 13.4678 150.565 13.4678 150ZM20.252 151.445V148H21.916V154H20.3184V152.91H20.2559C20.1204 153.262 19.8952 153.544 19.5801 153.758C19.2676 153.971 18.8861 154.078 18.4355 154.078C18.0345 154.078 17.6816 153.987 17.377 153.805C17.0723 153.622 16.834 153.363 16.6621 153.027C16.4928 152.691 16.4069 152.289 16.4043 151.82V148H18.0684V151.523C18.071 151.878 18.166 152.158 18.3535 152.363C18.541 152.569 18.7923 152.672 19.1074 152.672C19.3079 152.672 19.4954 152.626 19.6699 152.535C19.8444 152.441 19.985 152.303 20.0918 152.121C20.2012 151.939 20.2546 151.714 20.252 151.445ZM23.2471 154V148H24.9111V154H23.2471ZM24.083 147.227C23.8356 147.227 23.6234 147.145 23.4463 146.98C23.2718 146.814 23.1846 146.615 23.1846 146.383C23.1846 146.154 23.2718 145.957 23.4463 145.793C23.6234 145.626 23.8356 145.543 24.083 145.543C24.3304 145.543 24.5413 145.626 24.7158 145.793C24.8929 145.957 24.9814 146.154 24.9814 146.383C24.9814 146.615 24.8929 146.814 24.7158 146.98C24.5413 147.145 24.3304 147.227 24.083 147.227ZM26.2129 154V153.008L29.1504 149.371V149.328H26.3145V148H31.1543V149.082L28.3965 152.629V152.672H31.2559V154H26.2129Z" fill="#BAEDA6"/>
<path d="M6 170.053V168L19.5 178.947L33 168V170.053L19.5 181L6 170.053Z" fill="#03545B"/>
<path d="M6.10742 196H8.19336L10.3965 201.375H10.4902L12.6934 196H14.7793V204H13.1387V198.793H13.0723L11.002 203.961H9.88477L7.81445 198.773H7.74805V204H6.10742V196ZM17.8525 204.113C17.4697 204.113 17.1286 204.047 16.8291 203.914C16.5296 203.779 16.2926 203.579 16.1182 203.316C15.9463 203.051 15.8604 202.72 15.8604 202.324C15.8604 201.991 15.9215 201.711 16.0439 201.484C16.1663 201.258 16.333 201.076 16.5439 200.937C16.7549 200.799 16.9945 200.695 17.2627 200.625C17.5335 200.555 17.8174 200.505 18.1143 200.477C18.4632 200.44 18.7445 200.406 18.958 200.375C19.1715 200.341 19.3265 200.292 19.4229 200.227C19.5192 200.161 19.5674 200.065 19.5674 199.937V199.914C19.5674 199.667 19.4893 199.475 19.333 199.34C19.1794 199.204 18.9606 199.137 18.6768 199.137C18.3773 199.137 18.139 199.203 17.9619 199.336C17.7848 199.466 17.6676 199.63 17.6104 199.828L16.0713 199.703C16.1494 199.339 16.3031 199.023 16.5322 198.758C16.7614 198.49 17.057 198.284 17.4189 198.141C17.7835 197.995 18.2054 197.922 18.6846 197.922C19.0179 197.922 19.3369 197.961 19.6416 198.039C19.9489 198.117 20.221 198.238 20.458 198.402C20.6976 198.566 20.8864 198.777 21.0244 199.035C21.1624 199.29 21.2314 199.596 21.2314 199.953V204H19.6533V203.168H19.6064C19.5101 203.355 19.3812 203.521 19.2197 203.664C19.0583 203.805 18.8643 203.915 18.6377 203.996C18.4111 204.074 18.1494 204.113 17.8525 204.113ZM18.3291 202.965C18.5739 202.965 18.79 202.917 18.9775 202.82C19.165 202.721 19.3122 202.589 19.4189 202.422C19.5257 202.255 19.5791 202.066 19.5791 201.855V201.219C19.527 201.253 19.4554 201.284 19.3643 201.312C19.2757 201.339 19.1755 201.363 19.0635 201.387C18.9515 201.408 18.8395 201.427 18.7275 201.445C18.6156 201.461 18.514 201.475 18.4229 201.488C18.2275 201.517 18.057 201.562 17.9111 201.625C17.7653 201.687 17.652 201.772 17.5713 201.879C17.4906 201.983 17.4502 202.113 17.4502 202.27C17.4502 202.496 17.5322 202.669 17.6963 202.789C17.863 202.906 18.0739 202.965 18.3291 202.965ZM24.0303 202.273L24.0342 200.277H24.2764L26.1982 198H28.1084L25.5264 201.016H25.1318L24.0303 202.273ZM22.5225 204V196H24.1865V204H22.5225ZM26.2725 204L24.5068 201.387L25.6162 200.211L28.2217 204H26.2725ZM31.4121 204.117C30.7949 204.117 30.2637 203.992 29.8184 203.742C29.3757 203.49 29.0345 203.133 28.7949 202.672C28.5553 202.208 28.4355 201.66 28.4355 201.027C28.4355 200.41 28.5553 199.868 28.7949 199.402C29.0345 198.936 29.3717 198.573 29.8066 198.312C30.2441 198.052 30.7572 197.922 31.3457 197.922C31.7415 197.922 32.11 197.986 32.4512 198.113C32.7949 198.238 33.0944 198.427 33.3496 198.68C33.6074 198.932 33.8079 199.25 33.9512 199.633C34.0944 200.013 34.166 200.458 34.166 200.969V201.426H29.0996V200.395H32.5996C32.5996 200.155 32.5475 199.943 32.4434 199.758C32.3392 199.573 32.1947 199.428 32.0098 199.324C31.8275 199.217 31.6152 199.164 31.373 199.164C31.1204 199.164 30.8965 199.223 30.7012 199.34C30.5085 199.454 30.3574 199.609 30.248 199.805C30.1387 199.997 30.0827 200.212 30.0801 200.449V201.43C30.0801 201.727 30.1348 201.983 30.2441 202.199C30.3561 202.415 30.5137 202.582 30.7168 202.699C30.9199 202.816 31.1608 202.875 31.4395 202.875C31.6243 202.875 31.7936 202.849 31.9473 202.797C32.1009 202.745 32.2324 202.667 32.3418 202.562C32.4512 202.458 32.5345 202.331 32.5918 202.18L34.1309 202.281C34.0527 202.651 33.8926 202.974 33.6504 203.25C33.4108 203.523 33.1009 203.737 32.7207 203.891C32.3431 204.042 31.9069 204.117 31.4121 204.117ZM7.45557 209H9.5415L11.7446 214.375H11.8384L14.0415 209H16.1274V217H14.4868V211.793H14.4204L12.3501 216.961H11.2329L9.1626 211.773H9.09619V217H7.45557V209ZM17.4897 217V211H19.1538V217H17.4897ZM18.3257 210.227C18.0783 210.227 17.866 210.145 17.689 209.98C17.5145 209.814 17.4272 209.615 17.4272 209.383C17.4272 209.154 17.5145 208.957 17.689 208.793C17.866 208.626 18.0783 208.543 18.3257 208.543C18.5731 208.543 18.784 208.626 18.9585 208.793C19.1356 208.957 19.2241 209.154 19.2241 209.383C19.2241 209.615 19.1356 209.814 18.9585 209.98C18.784 210.145 18.5731 210.227 18.3257 210.227ZM22.1509 213.531V217H20.4868V211H22.0728V212.059H22.1431C22.2759 211.71 22.4985 211.434 22.811 211.23C23.1235 211.025 23.5024 210.922 23.9478 210.922C24.3644 210.922 24.7277 211.013 25.0376 211.195C25.3475 211.378 25.5884 211.638 25.7603 211.977C25.9321 212.312 26.0181 212.714 26.0181 213.18V217H24.354V213.477C24.3566 213.109 24.2629 212.823 24.0728 212.617C23.8826 212.409 23.6209 212.305 23.2876 212.305C23.0636 212.305 22.8657 212.353 22.6938 212.449C22.5246 212.546 22.3918 212.686 22.2954 212.871C22.2017 213.053 22.1535 213.273 22.1509 213.531ZM30.064 217.117C29.4468 217.117 28.9155 216.992 28.4702 216.742C28.0275 216.49 27.6864 216.133 27.4468 215.672C27.2072 215.208 27.0874 214.66 27.0874 214.027C27.0874 213.41 27.2072 212.868 27.4468 212.402C27.6864 211.936 28.0236 211.573 28.4585 211.312C28.896 211.052 29.409 210.922 29.9976 210.922C30.3934 210.922 30.7619 210.986 31.103 211.113C31.4468 211.238 31.7463 211.427 32.0015 211.68C32.2593 211.932 32.4598 212.25 32.603 212.633C32.7463 213.013 32.8179 213.458 32.8179 213.969V214.426H27.7515V213.395H31.2515C31.2515 213.155 31.1994 212.943 31.0952 212.758C30.991 212.573 30.8465 212.428 30.6616 212.324C30.4793 212.217 30.2671 212.164 30.0249 212.164C29.7723 212.164 29.5483 212.223 29.353 212.34C29.1603 212.454 29.0093 212.609 28.8999 212.805C28.7905 212.997 28.7345 213.212 28.7319 213.449V214.43C28.7319 214.727 28.7866 214.983 28.896 215.199C29.008 215.415 29.1655 215.582 29.3687 215.699C29.5718 215.816 29.8127 215.875 30.0913 215.875C30.2762 215.875 30.4455 215.849 30.5991 215.797C30.7528 215.745 30.8843 215.667 30.9937 215.562C31.103 215.458 31.1864 215.331 31.2437 215.18L32.7827 215.281C32.7046 215.651 32.5444 215.974 32.3022 216.25C32.0627 216.523 31.7528 216.737 31.3726 216.891C30.995 217.042 30.5588 217.117 30.064 217.117Z" fill="#03545B"/>
</svg>
